<svg width="411" height="55" viewBox="0 0 411 55" fill="none" xmlns="http://www.w3.org/2000/svg">
<mask id="path-1-outside-1_114_28" maskUnits="userSpaceOnUse" x="152" y="-0.685547" width="258" height="56" fill="black">
<rect fill="white" x="152" y="-0.685547" width="258" height="56"/>
<path d="M164.447 53.3145H154.077V1.5H190.354V11.8701H164.447V22.2402H179.984V32.6104H164.447V53.3145ZM209.772 53.3145H199.402V1.5H209.772V53.3145ZM264.636 27.4072C264.636 29.792 264.323 32.0924 263.697 34.3086C263.095 36.5007 262.227 38.5602 261.095 40.4873C259.963 42.3903 258.614 44.1367 257.048 45.7266C255.483 47.2923 253.736 48.6413 251.809 49.7734C249.882 50.9056 247.81 51.7848 245.594 52.4111C243.402 53.0133 241.114 53.3145 238.729 53.3145H223.12V1.5H238.729C241.114 1.5 243.402 1.81315 245.594 2.43945C247.81 3.04167 249.882 3.90885 251.809 5.04102C253.736 6.17318 255.483 7.53418 257.048 9.12402C258.614 10.6898 259.963 12.4362 261.095 14.3633C262.227 16.2663 263.095 18.3258 263.697 20.542C264.323 22.734 264.636 25.0225 264.636 27.4072ZM254.266 27.4072C254.266 25.2633 253.857 23.252 253.038 21.373C252.243 19.4941 251.135 17.8561 249.713 16.459C248.316 15.0378 246.666 13.9176 244.763 13.0986C242.884 12.2796 240.873 11.8701 238.729 11.8701H233.562V42.9443H238.729C240.873 42.9443 242.884 42.5469 244.763 41.752C246.666 40.9329 248.316 39.8249 249.713 38.4277C251.135 37.0065 252.243 35.3564 253.038 33.4775C253.857 31.5745 254.266 29.5511 254.266 27.4072ZM316.754 27.4072C316.754 29.792 316.441 32.0924 315.815 34.3086C315.213 36.5007 314.345 38.5602 313.213 40.4873C312.081 42.3903 310.732 44.1367 309.166 45.7266C307.601 47.2923 305.854 48.6413 303.927 49.7734C302 50.9056 299.928 51.7848 297.712 52.4111C295.52 53.0133 293.232 53.3145 290.847 53.3145H275.238V1.5H290.847C293.232 1.5 295.52 1.81315 297.712 2.43945C299.928 3.04167 302 3.90885 303.927 5.04102C305.854 6.17318 307.601 7.53418 309.166 9.12402C310.732 10.6898 312.081 12.4362 313.213 14.3633C314.345 16.2663 315.213 18.3258 315.815 20.542C316.441 22.734 316.754 25.0225 316.754 27.4072ZM306.384 27.4072C306.384 25.2633 305.975 23.252 305.156 21.373C304.361 19.4941 303.253 17.8561 301.831 16.459C300.434 15.0378 298.784 13.9176 296.881 13.0986C295.002 12.2796 292.991 11.8701 290.847 11.8701H285.68V42.9443H290.847C292.991 42.9443 295.002 42.5469 296.881 41.752C298.784 40.9329 300.434 39.8249 301.831 38.4277C303.253 37.0065 304.361 35.3564 305.156 33.4775C305.975 31.5745 306.384 29.5511 306.384 27.4072ZM363.633 53.3145H327.356V1.5H337.726V42.9443H363.633V53.3145ZM408.271 53.3145H372.753V1.5H408.271V11.8701H383.123V22.2402H400.142V32.6104H383.123V42.9443H408.271V53.3145Z"/>
</mask>
<path d="M164.447 53.3145H154.077V1.5H190.354V11.8701H164.447V22.2402H179.984V32.6104H164.447V53.3145ZM209.772 53.3145H199.402V1.5H209.772V53.3145ZM264.636 27.4072C264.636 29.792 264.323 32.0924 263.697 34.3086C263.095 36.5007 262.227 38.5602 261.095 40.4873C259.963 42.3903 258.614 44.1367 257.048 45.7266C255.483 47.2923 253.736 48.6413 251.809 49.7734C249.882 50.9056 247.81 51.7848 245.594 52.4111C243.402 53.0133 241.114 53.3145 238.729 53.3145H223.12V1.5H238.729C241.114 1.5 243.402 1.81315 245.594 2.43945C247.81 3.04167 249.882 3.90885 251.809 5.04102C253.736 6.17318 255.483 7.53418 257.048 9.12402C258.614 10.6898 259.963 12.4362 261.095 14.3633C262.227 16.2663 263.095 18.3258 263.697 20.542C264.323 22.734 264.636 25.0225 264.636 27.4072ZM254.266 27.4072C254.266 25.2633 253.857 23.252 253.038 21.373C252.243 19.4941 251.135 17.8561 249.713 16.459C248.316 15.0378 246.666 13.9176 244.763 13.0986C242.884 12.2796 240.873 11.8701 238.729 11.8701H233.562V42.9443H238.729C240.873 42.9443 242.884 42.5469 244.763 41.752C246.666 40.9329 248.316 39.8249 249.713 38.4277C251.135 37.0065 252.243 35.3564 253.038 33.4775C253.857 31.5745 254.266 29.5511 254.266 27.4072ZM316.754 27.4072C316.754 29.792 316.441 32.0924 315.815 34.3086C315.213 36.5007 314.345 38.5602 313.213 40.4873C312.081 42.3903 310.732 44.1367 309.166 45.7266C307.601 47.2923 305.854 48.6413 303.927 49.7734C302 50.9056 299.928 51.7848 297.712 52.4111C295.52 53.0133 293.232 53.3145 290.847 53.3145H275.238V1.5H290.847C293.232 1.5 295.52 1.81315 297.712 2.43945C299.928 3.04167 302 3.90885 303.927 5.04102C305.854 6.17318 307.601 7.53418 309.166 9.12402C310.732 10.6898 312.081 12.4362 313.213 14.3633C314.345 16.2663 315.213 18.3258 315.815 20.542C316.441 22.734 316.754 25.0225 316.754 27.4072ZM306.384 27.4072C306.384 25.2633 305.975 23.252 305.156 21.373C304.361 19.4941 303.253 17.8561 301.831 16.459C300.434 15.0378 298.784 13.9176 296.881 13.0986C295.002 12.2796 292.991 11.8701 290.847 11.8701H285.68V42.9443H290.847C292.991 42.9443 295.002 42.5469 296.881 41.752C298.784 40.9329 300.434 39.8249 301.831 38.4277C303.253 37.0065 304.361 35.3564 305.156 33.4775C305.975 31.5745 306.384 29.5511 306.384 27.4072ZM363.633 53.3145H327.356V1.5H337.726V42.9443H363.633V53.3145ZM408.271 53.3145H372.753V1.5H408.271V11.8701H383.123V22.2402H400.142V32.6104H383.123V42.9443H408.271V53.3145Z" fill="black"/>
<path d="M164.447 53.3145V54.8145H165.947V53.3145H164.447ZM154.077 53.3145H152.577V54.8145H154.077V53.3145ZM154.077 1.5V0H152.577V1.5H154.077ZM190.354 1.5H191.854V0H190.354V1.5ZM190.354 11.8701V13.3701H191.854V11.8701H190.354ZM164.447 11.8701V10.3701H162.947V11.8701H164.447ZM164.447 22.2402H162.947V23.7402H164.447V22.2402ZM179.984 22.2402H181.484V20.7402H179.984V22.2402ZM179.984 32.6104V34.1104H181.484V32.6104H179.984ZM164.447 32.6104V31.1104H162.947V32.6104H164.447ZM164.447 53.3145V51.8145H154.077V53.3145V54.8145H164.447V53.3145ZM154.077 53.3145H155.577V1.5H154.077H152.577V53.3145H154.077ZM154.077 1.5V3H190.354V1.5V0H154.077V1.5ZM190.354 1.5H188.854V11.8701H190.354H191.854V1.5H190.354ZM190.354 11.8701V10.3701H164.447V11.8701V13.3701H190.354V11.8701ZM164.447 11.8701H162.947V22.2402H164.447H165.947V11.8701H164.447ZM164.447 22.2402V23.7402H179.984V22.2402V20.7402H164.447V22.2402ZM179.984 22.2402H178.484V32.6104H179.984H181.484V22.2402H179.984ZM179.984 32.6104V31.1104H164.447V32.6104V34.1104H179.984V32.6104ZM164.447 32.6104H162.947V53.3145H164.447H165.947V32.6104H164.447ZM209.772 53.3145V54.8145H211.272V53.3145H209.772ZM199.402 53.3145H197.902V54.8145H199.402V53.3145ZM199.402 1.5V0H197.902V1.5H199.402ZM209.772 1.5H211.272V0H209.772V1.5ZM209.772 53.3145V51.8145H199.402V53.3145V54.8145H209.772V53.3145ZM199.402 53.3145H200.902V1.5H199.402H197.902V53.3145H199.402ZM199.402 1.5V3H209.772V1.5V0H199.402V1.5ZM209.772 1.5H208.272V53.3145H209.772H211.272V1.5H209.772ZM263.697 34.3086L262.253 33.9007L262.25 33.9112L263.697 34.3086ZM261.095 40.4873L262.384 41.2543L262.389 41.2471L261.095 40.4873ZM257.048 45.7266L258.109 46.7873L258.117 46.7791L257.048 45.7266ZM245.594 52.4111L245.992 53.8576L246.002 53.8546L245.594 52.4111ZM223.12 53.3145H221.62V54.8145H223.12V53.3145ZM223.12 1.5V0H221.62V1.5H223.12ZM245.594 2.43945L245.182 3.88174L245.192 3.88441L245.201 3.88696L245.594 2.43945ZM257.048 9.12402L255.98 10.1766L255.988 10.1847L257.048 9.12402ZM261.095 14.3633L259.802 15.1231L259.806 15.1302L261.095 14.3633ZM263.697 20.542L262.249 20.9353L262.252 20.9447L262.255 20.9541L263.697 20.542ZM253.038 21.373L251.656 21.9575L251.659 21.965L251.663 21.9724L253.038 21.373ZM249.713 16.459L248.644 17.5105L248.653 17.5197L248.662 17.5287L249.713 16.459ZM244.763 13.0986L244.164 14.4737L244.17 14.4764L244.763 13.0986ZM233.562 11.8701V10.3701H232.062V11.8701H233.562ZM233.562 42.9443H232.062V44.4443H233.562V42.9443ZM244.763 41.752L245.348 43.1334L245.356 43.1298L244.763 41.752ZM249.713 38.4277L248.653 37.3671L249.713 38.4277ZM253.038 33.4775L251.66 32.8845L251.656 32.8931L253.038 33.4775ZM264.636 27.4072H263.136C263.136 29.659 262.841 31.8219 262.253 33.9007L263.697 34.3086L265.14 34.7165C265.805 32.363 266.136 29.925 266.136 27.4072H264.636ZM263.697 34.3086L262.25 33.9112C261.683 35.9785 260.866 37.9159 259.802 39.7275L261.095 40.4873L262.389 41.2471C263.589 39.2045 264.507 37.0228 265.143 34.706L263.697 34.3086ZM261.095 40.4873L259.806 39.7204C258.736 41.5188 257.461 43.1695 255.98 44.674L257.048 45.7266L258.117 46.7791C259.767 45.1039 261.19 43.2618 262.384 41.2542L261.095 40.4873ZM257.048 45.7266L255.988 44.6659C254.513 46.1408 252.868 47.4118 251.049 48.4801L251.809 49.7734L252.569 51.0668C254.605 49.8707 256.452 48.4438 258.109 46.7872L257.048 45.7266ZM251.809 49.7734L251.049 48.4801C249.236 49.5455 247.283 50.3751 245.186 50.9677L245.594 52.4111L246.002 53.8546C248.338 53.1945 250.528 52.2657 252.569 51.0668L251.809 49.7734ZM245.594 52.4111L245.197 50.9647C243.141 51.5297 240.986 51.8145 238.729 51.8145V53.3145V54.8145C241.242 54.8145 243.664 54.497 245.992 53.8575L245.594 52.4111ZM238.729 53.3145V51.8145H223.12V53.3145V54.8145H238.729V53.3145ZM223.12 53.3145H224.62V1.5H223.12H221.62V53.3145H223.12ZM223.12 1.5V3H238.729V1.5V0H223.12V1.5ZM238.729 1.5V3C240.981 3 243.13 3.29546 245.182 3.88174L245.594 2.43945L246.006 0.997166C243.674 0.330845 241.247 0 238.729 0V1.5ZM245.594 2.43945L245.201 3.88696C247.292 4.45523 249.24 5.27144 251.049 6.33433L251.809 5.04102L252.569 3.7477C250.524 2.54626 248.329 1.6281 245.988 0.991943L245.594 2.43945ZM251.809 5.04102L251.049 6.33433C252.864 7.40019 254.506 8.68028 255.98 10.1766L257.048 9.12402L258.117 8.07149C256.459 6.38808 254.609 4.94617 252.569 3.7477L251.809 5.04102ZM257.048 9.12402L255.988 10.1847C257.463 11.6596 258.734 13.3047 259.802 15.1231L261.095 14.3633L262.389 13.6035C261.193 11.5677 259.766 9.71997 258.109 8.06336L257.048 9.12402ZM261.095 14.3633L259.806 15.1302C260.866 16.9122 261.681 18.8454 262.249 20.9353L263.697 20.542L265.144 20.1486C264.508 17.8063 263.589 15.6204 262.384 13.5963L261.095 14.3633ZM263.697 20.542L262.255 20.9541C262.841 23.0061 263.136 25.1554 263.136 27.4072H264.636H266.136C266.136 24.8895 265.805 22.462 265.139 20.1299L263.697 20.542ZM254.266 27.4072H255.766C255.766 25.0668 255.318 22.8503 254.413 20.7737L253.038 21.373L251.663 21.9724C252.395 23.6536 252.766 25.4599 252.766 27.4072H254.266ZM253.038 21.373L254.419 20.7886C253.549 18.7322 252.33 16.9282 250.765 15.3893L249.713 16.459L248.662 17.5287C249.939 18.784 250.936 20.2561 251.656 21.9575L253.038 21.373ZM249.713 16.459L250.783 15.4074C249.244 13.8421 247.431 12.6136 245.356 11.7208L244.763 13.0986L244.17 14.4764C245.902 15.2217 247.388 16.2334 248.644 17.5105L249.713 16.459ZM244.763 13.0986L245.363 11.7236C243.286 10.8184 241.07 10.3701 238.729 10.3701V11.8701V13.3701C240.676 13.3701 242.483 13.7409 244.164 14.4737L244.763 13.0986ZM238.729 11.8701V10.3701H233.562V11.8701V13.3701H238.729V11.8701ZM233.562 11.8701H232.062V42.9443H233.562H235.062V11.8701H233.562ZM233.562 42.9443V44.4443H238.729V42.9443V41.4443H233.562V42.9443ZM238.729 42.9443V44.4443C241.063 44.4443 243.275 44.0105 245.348 43.1334L244.763 41.752L244.179 40.3705C242.494 41.0832 240.683 41.4443 238.729 41.4443V42.9443ZM244.763 41.752L245.356 43.1298C247.425 42.2393 249.236 41.0264 250.774 39.4884L249.713 38.4277L248.653 37.3671C247.397 38.6234 245.907 39.6266 244.17 40.3741L244.763 41.752ZM249.713 38.4277L250.774 39.4884C252.334 37.9285 253.55 36.1161 254.419 34.062L253.038 33.4775L251.656 32.8931C250.935 34.5968 249.935 36.0845 248.653 37.3671L249.713 38.4277ZM253.038 33.4775L254.416 34.0705C255.318 31.9737 255.766 29.7478 255.766 27.4072H254.266H252.766C252.766 29.3545 252.395 31.1754 251.66 32.8846L253.038 33.4775ZM315.815 34.3086L314.371 33.9007L314.368 33.9112L315.815 34.3086ZM313.213 40.4873L314.502 41.2543L314.507 41.2471L313.213 40.4873ZM309.166 45.7266L310.227 46.7873L310.235 46.7791L309.166 45.7266ZM297.712 52.4111L298.11 53.8576L298.12 53.8546L297.712 52.4111ZM275.238 53.3145H273.738V54.8145H275.238V53.3145ZM275.238 1.5V0H273.738V1.5H275.238ZM297.712 2.43945L297.3 3.88174L297.31 3.88441L297.319 3.88696L297.712 2.43945ZM309.166 9.12402L308.098 10.1766L308.106 10.1847L309.166 9.12402ZM313.213 14.3633L311.92 15.1231L311.924 15.1302L313.213 14.3633ZM315.815 20.542L314.367 20.9353L314.37 20.9447L314.373 20.9541L315.815 20.542ZM305.156 21.373L303.774 21.9575L303.777 21.965L303.781 21.9724L305.156 21.373ZM301.831 16.459L300.762 17.5105L300.771 17.5197L300.78 17.5287L301.831 16.459ZM296.881 13.0986L296.282 14.4737L296.288 14.4764L296.881 13.0986ZM285.68 11.8701V10.3701H284.18V11.8701H285.68ZM285.68 42.9443H284.18V44.4443H285.68V42.9443ZM296.881 41.752L297.466 43.1334L297.474 43.1298L296.881 41.752ZM301.831 38.4277L300.771 37.3671L301.831 38.4277ZM305.156 33.4775L303.778 32.8845L303.774 32.8931L305.156 33.4775ZM316.754 27.4072H315.254C315.254 29.659 314.959 31.8219 314.371 33.9007L315.815 34.3086L317.258 34.7165C317.923 32.363 318.254 29.925 318.254 27.4072H316.754ZM315.815 34.3086L314.368 33.9112C313.801 35.9785 312.984 37.9159 311.92 39.7275L313.213 40.4873L314.507 41.2471C315.707 39.2045 316.625 37.0228 317.261 34.706L315.815 34.3086ZM313.213 40.4873L311.924 39.7204C310.854 41.5188 309.579 43.1695 308.098 44.674L309.166 45.7266L310.235 46.7791C311.885 45.1039 313.308 43.2618 314.502 41.2542L313.213 40.4873ZM309.166 45.7266L308.106 44.6659C306.631 46.1408 304.986 47.4118 303.167 48.4801L303.927 49.7734L304.687 51.0668C306.723 49.8707 308.57 48.4438 310.227 46.7872L309.166 45.7266ZM303.927 49.7734L303.167 48.4801C301.354 49.5455 299.401 50.3751 297.304 50.9677L297.712 52.4111L298.12 53.8546C300.456 53.1945 302.646 52.2657 304.687 51.0668L303.927 49.7734ZM297.712 52.4111L297.315 50.9647C295.259 51.5297 293.104 51.8145 290.847 51.8145V53.3145V54.8145C293.359 54.8145 295.782 54.497 298.11 53.8575L297.712 52.4111ZM290.847 53.3145V51.8145H275.238V53.3145V54.8145H290.847V53.3145ZM275.238 53.3145H276.738V1.5H275.238H273.738V53.3145H275.238ZM275.238 1.5V3H290.847V1.5V0H275.238V1.5ZM290.847 1.5V3C293.099 3 295.248 3.29546 297.3 3.88174L297.712 2.43945L298.124 0.997166C295.792 0.330845 293.365 0 290.847 0V1.5ZM297.712 2.43945L297.319 3.88696C299.41 4.45523 301.358 5.27144 303.167 6.33433L303.927 5.04102L304.687 3.7477C302.642 2.54626 300.447 1.6281 298.106 0.991943L297.712 2.43945ZM303.927 5.04102L303.167 6.33433C304.982 7.40019 306.624 8.68028 308.098 10.1766L309.166 9.12402L310.235 8.07149C308.577 6.38808 306.727 4.94617 304.687 3.7477L303.927 5.04102ZM309.166 9.12402L308.106 10.1847C309.581 11.6596 310.852 13.3047 311.92 15.1231L313.213 14.3633L314.507 13.6035C313.311 11.5677 311.884 9.71997 310.227 8.06336L309.166 9.12402ZM313.213 14.3633L311.924 15.1302C312.984 16.9122 313.799 18.8454 314.367 20.9353L315.815 20.542L317.262 20.1486C316.626 17.8063 315.707 15.6204 314.502 13.5963L313.213 14.3633ZM315.815 20.542L314.373 20.9541C314.959 23.0061 315.254 25.1554 315.254 27.4072H316.754H318.254C318.254 24.8895 317.923 22.462 317.257 20.1299L315.815 20.542ZM306.384 27.4072H307.884C307.884 25.0668 307.436 22.8503 306.531 20.7737L305.156 21.373L303.781 21.9724C304.513 23.6536 304.884 25.4599 304.884 27.4072H306.384ZM305.156 21.373L306.537 20.7886C305.667 18.7322 304.448 16.9282 302.883 15.3893L301.831 16.459L300.78 17.5287C302.057 18.784 303.054 20.2561 303.774 21.9575L305.156 21.373ZM301.831 16.459L302.901 15.4074C301.362 13.8421 299.549 12.6136 297.474 11.7208L296.881 13.0986L296.288 14.4764C298.02 15.2217 299.506 16.2334 300.762 17.5105L301.831 16.459ZM296.881 13.0986L297.481 11.7236C295.404 10.8184 293.188 10.3701 290.847 10.3701V11.8701V13.3701C292.794 13.3701 294.601 13.7409 296.282 14.4737L296.881 13.0986ZM290.847 11.8701V10.3701H285.68V11.8701V13.3701H290.847V11.8701ZM285.68 11.8701H284.18V42.9443H285.68H287.18V11.8701H285.68ZM285.68 42.9443V44.4443H290.847V42.9443V41.4443H285.68V42.9443ZM290.847 42.9443V44.4443C293.181 44.4443 295.393 44.0105 297.466 43.1334L296.881 41.752L296.297 40.3705C294.612 41.0832 292.801 41.4443 290.847 41.4443V42.9443ZM296.881 41.752L297.474 43.1298C299.543 42.2393 301.354 41.0264 302.892 39.4884L301.831 38.4277L300.771 37.3671C299.515 38.6234 298.025 39.6266 296.288 40.3741L296.881 41.752ZM301.831 38.4277L302.892 39.4884C304.452 37.9285 305.668 36.1161 306.537 34.062L305.156 33.4775L303.774 32.8931C303.053 34.5968 302.053 36.0845 300.771 37.3671L301.831 38.4277ZM305.156 33.4775L306.533 34.0705C307.436 31.9737 307.884 29.7478 307.884 27.4072H306.384H304.884C304.884 29.3545 304.513 31.1754 303.778 32.8846L305.156 33.4775ZM363.633 53.3145V54.8145H365.133V53.3145H363.633ZM327.356 53.3145H325.856V54.8145H327.356V53.3145ZM327.356 1.5V0H325.856V1.5H327.356ZM337.726 1.5H339.226V0H337.726V1.5ZM337.726 42.9443H336.226V44.4443H337.726V42.9443ZM363.633 42.9443H365.133V41.4443H363.633V42.9443ZM363.633 53.3145V51.8145H327.356V53.3145V54.8145H363.633V53.3145ZM327.356 53.3145H328.856V1.5H327.356H325.856V53.3145H327.356ZM327.356 1.5V3H337.726V1.5V0H327.356V1.5ZM337.726 1.5H336.226V42.9443H337.726H339.226V1.5H337.726ZM337.726 42.9443V44.4443H363.633V42.9443V41.4443H337.726V42.9443ZM363.633 42.9443H362.133V53.3145H363.633H365.133V42.9443H363.633ZM408.271 53.3145V54.8145H409.771V53.3145H408.271ZM372.753 53.3145H371.253V54.8145H372.753V53.3145ZM372.753 1.5V0H371.253V1.5H372.753ZM408.271 1.5H409.771V0H408.271V1.5ZM408.271 11.8701V13.3701H409.771V11.8701H408.271ZM383.123 11.8701V10.3701H381.623V11.8701H383.123ZM383.123 22.2402H381.623V23.7402H383.123V22.2402ZM400.142 22.2402H401.642V20.7402H400.142V22.2402ZM400.142 32.6104V34.1104H401.642V32.6104H400.142ZM383.123 32.6104V31.1104H381.623V32.6104H383.123ZM383.123 42.9443H381.623V44.4443H383.123V42.9443ZM408.271 42.9443H409.771V41.4443H408.271V42.9443ZM408.271 53.3145V51.8145H372.753V53.3145V54.8145H408.271V53.3145ZM372.753 53.3145H374.253V1.5H372.753H371.253V53.3145H372.753ZM372.753 1.5V3H408.271V1.5V0H372.753V1.5ZM408.271 1.5H406.771V11.8701H408.271H409.771V1.5H408.271ZM408.271 11.8701V10.3701H383.123V11.8701V13.3701H408.271V11.8701ZM383.123 11.8701H381.623V22.2402H383.123H384.623V11.8701H383.123ZM383.123 22.2402V23.7402H400.142V22.2402V20.7402H383.123V22.2402ZM400.142 22.2402H398.642V32.6104H400.142H401.642V22.2402H400.142ZM400.142 32.6104V31.1104H383.123V32.6104V34.1104H400.142V32.6104ZM383.123 32.6104H381.623V42.9443H383.123H384.623V32.6104H383.123ZM383.123 42.9443V44.4443H408.271V42.9443V41.4443H383.123V42.9443ZM408.271 42.9443H406.771V53.3145H408.271H409.771V42.9443H408.271Z" fill="black" mask="url(#path-1-outside-1_114_28)"/>
<mask id="path-3-outside-2_114_28" maskUnits="userSpaceOnUse" x="5" y="-0.685547" width="142" height="56" fill="black">
<rect fill="white" x="5" y="-0.685547" width="142" height="56"/>
<path d="M48.2287 27.4072C48.2287 29.792 47.9156 32.0924 47.2893 34.3086C46.687 36.5007 45.8199 38.5602 44.6877 40.4873C43.5555 42.3903 42.2066 44.1367 40.6408 45.7266C39.0751 47.2923 37.3286 48.6413 35.4016 49.7734C33.4745 50.9056 31.4029 51.7848 29.1867 52.4111C26.9947 53.0133 24.7063 53.3145 22.3215 53.3145H6.71211V1.5H22.3215C24.7063 1.5 26.9947 1.81315 29.1867 2.43945C31.4029 3.04167 33.4745 3.90885 35.4016 5.04102C37.3286 6.17318 39.0751 7.53418 40.6408 9.12402C42.2066 10.6898 43.5555 12.4362 44.6877 14.3633C45.8199 16.2663 46.687 18.3258 47.2893 20.542C47.9156 22.734 48.2287 25.0225 48.2287 27.4072ZM37.8586 27.4072C37.8586 25.2633 37.4491 23.252 36.6301 21.373C35.8352 19.4941 34.7271 17.8561 33.3059 16.459C31.9087 15.0378 30.2587 13.9176 28.3557 13.0986C26.4768 12.2796 24.4654 11.8701 22.3215 11.8701H17.1545V42.9443H22.3215C24.4654 42.9443 26.4768 42.5469 28.3557 41.752C30.2587 40.9329 31.9087 39.8249 33.3059 38.4277C34.7271 37.0065 35.8352 35.3564 36.6301 33.4775C37.4491 31.5745 37.8586 29.5511 37.8586 27.4072ZM94.3486 53.3145H58.8301V1.5H94.3486V11.8701H69.2002V22.2402H86.2188V32.6104H69.2002V42.9443H94.3486V53.3145ZM144.913 1.5L127.894 53.3145H117.524L100.578 1.5H112.357L122.691 36.0791L133.061 1.5H144.913Z"/>
</mask>
<path d="M48.2287 27.4072C48.2287 29.792 47.9156 32.0924 47.2893 34.3086C46.687 36.5007 45.8199 38.5602 44.6877 40.4873C43.5555 42.3903 42.2066 44.1367 40.6408 45.7266C39.0751 47.2923 37.3286 48.6413 35.4016 49.7734C33.4745 50.9056 31.4029 51.7848 29.1867 52.4111C26.9947 53.0133 24.7063 53.3145 22.3215 53.3145H6.71211V1.5H22.3215C24.7063 1.5 26.9947 1.81315 29.1867 2.43945C31.4029 3.04167 33.4745 3.90885 35.4016 5.04102C37.3286 6.17318 39.0751 7.53418 40.6408 9.12402C42.2066 10.6898 43.5555 12.4362 44.6877 14.3633C45.8199 16.2663 46.687 18.3258 47.2893 20.542C47.9156 22.734 48.2287 25.0225 48.2287 27.4072ZM37.8586 27.4072C37.8586 25.2633 37.4491 23.252 36.6301 21.373C35.8352 19.4941 34.7271 17.8561 33.3059 16.459C31.9087 15.0378 30.2587 13.9176 28.3557 13.0986C26.4768 12.2796 24.4654 11.8701 22.3215 11.8701H17.1545V42.9443H22.3215C24.4654 42.9443 26.4768 42.5469 28.3557 41.752C30.2587 40.9329 31.9087 39.8249 33.3059 38.4277C34.7271 37.0065 35.8352 35.3564 36.6301 33.4775C37.4491 31.5745 37.8586 29.5511 37.8586 27.4072ZM94.3486 53.3145H58.8301V1.5H94.3486V11.8701H69.2002V22.2402H86.2188V32.6104H69.2002V42.9443H94.3486V53.3145ZM144.913 1.5L127.894 53.3145H117.524L100.578 1.5H112.357L122.691 36.0791L133.061 1.5H144.913Z" fill="#2BB8BA"/>
<path d="M47.2893 34.3086L45.8458 33.9007L45.8428 33.9112L47.2893 34.3086ZM44.6877 40.4873L45.9768 41.2543L45.981 41.2471L44.6877 40.4873ZM40.6408 45.7266L41.7015 46.7873L41.7095 46.7791L40.6408 45.7266ZM29.1867 52.4111L29.5841 53.8576L29.5947 53.8546L29.1867 52.4111ZM6.71211 53.3145H5.21211V54.8145H6.71211V53.3145ZM6.71211 1.5V0H5.21211V1.5H6.71211ZM29.1867 2.43945L28.7746 3.88174L28.784 3.88441L28.7934 3.88696L29.1867 2.43945ZM40.6408 9.12402L39.5721 10.1766L39.5802 10.1847L40.6408 9.12402ZM44.6877 14.3633L43.3944 15.1231L43.3986 15.1302L44.6877 14.3633ZM47.2893 20.542L45.8418 20.9353L45.8443 20.9447L45.847 20.9541L47.2893 20.542ZM36.6301 21.373L35.2486 21.9575L35.2518 21.965L35.255 21.9724L36.6301 21.373ZM33.3059 16.459L32.2362 17.5105L32.2452 17.5197L32.2543 17.5287L33.3059 16.459ZM28.3557 13.0986L27.7563 14.4737L27.7627 14.4764L28.3557 13.0986ZM17.1545 11.8701V10.3701H15.6545V11.8701H17.1545ZM17.1545 42.9443H15.6545V44.4443H17.1545V42.9443ZM28.3557 41.752L28.9401 43.1334L28.9487 43.1298L28.3557 41.752ZM33.3059 38.4277L32.2452 37.3671L33.3059 38.4277ZM36.6301 33.4775L35.2522 32.8845L35.2486 32.8931L36.6301 33.4775ZM48.2287 27.4072H46.7287C46.7287 29.659 46.4333 31.8219 45.8458 33.9007L47.2893 34.3086L48.7327 34.7165C49.3979 32.363 49.7287 29.925 49.7287 27.4072H48.2287ZM47.2893 34.3086L45.8428 33.9112C45.2749 35.9785 44.4587 37.9159 43.3944 39.7275L44.6877 40.4873L45.981 41.2471C47.181 39.2045 48.0992 37.0228 48.7357 34.706L47.2893 34.3086ZM44.6877 40.4873L43.3986 39.7204C42.3286 41.5188 41.0538 43.1695 39.5721 44.674L40.6408 45.7266L41.7095 46.7791C43.3593 45.1039 44.7825 43.2618 45.9768 41.2542L44.6877 40.4873ZM40.6408 45.7266L39.5802 44.6659C38.1053 46.1408 36.4601 47.4118 34.6417 48.4801L35.4016 49.7734L36.1614 51.0668C38.1972 49.8707 40.0449 48.4438 41.7015 46.7872L40.6408 45.7266ZM35.4016 49.7734L34.6417 48.4801C32.8284 49.5455 30.8755 50.3751 28.7788 50.9677L29.1867 52.4111L29.5947 53.8546C31.9303 53.1945 34.1206 52.2657 36.1614 51.0668L35.4016 49.7734ZM29.1867 52.4111L28.7894 50.9647C26.733 51.5297 24.5786 51.8145 22.3215 51.8145V53.3145V54.8145C24.8339 54.8145 27.2564 54.497 29.5841 53.8575L29.1867 52.4111ZM22.3215 53.3145V51.8145H6.71211V53.3145V54.8145H22.3215V53.3145ZM6.71211 53.3145H8.21211V1.5H6.71211H5.21211V53.3145H6.71211ZM6.71211 1.5V3H22.3215V1.5V0H6.71211V1.5ZM22.3215 1.5V3C24.5733 3 26.7226 3.29546 28.7746 3.88174L29.1867 2.43945L29.5988 0.997166C27.2667 0.330845 24.8392 0 22.3215 0V1.5ZM29.1867 2.43945L28.7934 3.88696C30.8846 4.45523 32.8326 5.27144 34.6417 6.33433L35.4016 5.04102L36.1614 3.7477C34.1164 2.54626 31.9211 1.6281 29.5801 0.991943L29.1867 2.43945ZM35.4016 5.04102L34.6417 6.33433C36.456 7.40019 38.0985 8.68028 39.5721 10.1766L40.6408 9.12402L41.7095 8.07149C40.0516 6.38808 38.2013 4.94617 36.1614 3.7477L35.4016 5.04102ZM40.6408 9.12402L39.5802 10.1847C41.0551 11.6596 42.3261 13.3047 43.3944 15.1231L44.6877 14.3633L45.981 13.6035C44.785 11.5677 43.3581 9.71997 41.7015 8.06336L40.6408 9.12402ZM44.6877 14.3633L43.3986 15.1302C44.4587 16.9122 45.2738 18.8454 45.8418 20.9353L47.2893 20.542L48.7368 20.1486C48.1003 17.8063 47.181 15.6204 45.9768 13.5963L44.6877 14.3633ZM47.2893 20.542L45.847 20.9541C46.4333 23.0061 46.7287 25.1554 46.7287 27.4072H48.2287H49.7287C49.7287 24.8895 49.3979 22.462 48.7315 20.1299L47.2893 20.542ZM37.8586 27.4072H39.3586C39.3586 25.0668 38.9103 22.8503 38.0051 20.7737L36.6301 21.373L35.255 21.9724C35.9879 23.6536 36.3586 25.4599 36.3586 27.4072H37.8586ZM36.6301 21.373L38.0115 20.7886C37.1415 18.7322 35.9229 16.9282 34.3574 15.3893L33.3059 16.459L32.2543 17.5287C33.5313 18.784 34.5288 20.2561 35.2486 21.9575L36.6301 21.373ZM33.3059 16.459L34.3755 15.4074C32.8368 13.8421 31.023 12.6136 28.9487 11.7208L28.3557 13.0986L27.7627 14.4764C29.4943 15.2217 30.9807 16.2334 32.2362 17.5105L33.3059 16.459ZM28.3557 13.0986L28.955 11.7236C26.8784 10.8184 24.6619 10.3701 22.3215 10.3701V11.8701V13.3701C24.2688 13.3701 26.0751 13.7409 27.7563 14.4737L28.3557 13.0986ZM22.3215 11.8701V10.3701H17.1545V11.8701V13.3701H22.3215V11.8701ZM17.1545 11.8701H15.6545V42.9443H17.1545H18.6545V11.8701H17.1545ZM17.1545 42.9443V44.4443H22.3215V42.9443V41.4443H17.1545V42.9443ZM22.3215 42.9443V44.4443C24.6558 44.4443 26.867 44.0105 28.9401 43.1334L28.3557 41.752L27.7712 40.3705C26.0866 41.0832 24.275 41.4443 22.3215 41.4443V42.9443ZM28.3557 41.752L28.9487 43.1298C31.0176 42.2393 32.8285 41.0264 34.3665 39.4884L33.3059 38.4277L32.2452 37.3671C30.9889 38.6234 29.4997 39.6266 27.7627 40.3741L28.3557 41.752ZM33.3059 38.4277L34.3665 39.4884C35.9264 37.9285 37.1425 36.1161 38.0115 34.062L36.6301 33.4775L35.2486 32.8931C34.5278 34.5968 33.5277 36.0845 32.2452 37.3671L33.3059 38.4277ZM36.6301 33.4775L38.0079 34.0705C38.9103 31.9737 39.3586 29.7478 39.3586 27.4072H37.8586H36.3586C36.3586 29.3545 35.9878 31.1754 35.2523 32.8846L36.6301 33.4775ZM94.3486 53.3145V54.8145H95.8486V53.3145H94.3486ZM58.8301 53.3145H57.3301V54.8145H58.8301V53.3145ZM58.8301 1.5V0H57.3301V1.5H58.8301ZM94.3486 1.5H95.8486V0H94.3486V1.5ZM94.3486 11.8701V13.3701H95.8486V11.8701H94.3486ZM69.2002 11.8701V10.3701H67.7002V11.8701H69.2002ZM69.2002 22.2402H67.7002V23.7402H69.2002V22.2402ZM86.2188 22.2402H87.7188V20.7402H86.2188V22.2402ZM86.2188 32.6104V34.1104H87.7188V32.6104H86.2188ZM69.2002 32.6104V31.1104H67.7002V32.6104H69.2002ZM69.2002 42.9443H67.7002V44.4443H69.2002V42.9443ZM94.3486 42.9443H95.8486V41.4443H94.3486V42.9443ZM94.3486 53.3145V51.8145H58.8301V53.3145V54.8145H94.3486V53.3145ZM58.8301 53.3145H60.3301V1.5H58.8301H57.3301V53.3145H58.8301ZM58.8301 1.5V3H94.3486V1.5V0H58.8301V1.5ZM94.3486 1.5H92.8486V11.8701H94.3486H95.8486V1.5H94.3486ZM94.3486 11.8701V10.3701H69.2002V11.8701V13.3701H94.3486V11.8701ZM69.2002 11.8701H67.7002V22.2402H69.2002H70.7002V11.8701H69.2002ZM69.2002 22.2402V23.7402H86.2188V22.2402V20.7402H69.2002V22.2402ZM86.2188 22.2402H84.7188V32.6104H86.2188H87.7188V22.2402H86.2188ZM86.2188 32.6104V31.1104H69.2002V32.6104V34.1104H86.2188V32.6104ZM69.2002 32.6104H67.7002V42.9443H69.2002H70.7002V32.6104H69.2002ZM69.2002 42.9443V44.4443H94.3486V42.9443V41.4443H69.2002V42.9443ZM94.3486 42.9443H92.8486V53.3145H94.3486H95.8486V42.9443H94.3486ZM144.913 1.5L146.338 1.96807L146.984 0H144.913V1.5ZM127.894 53.3145V54.8145H128.98L129.319 53.7825L127.894 53.3145ZM117.524 53.3145L116.099 53.7807L116.437 54.8145H117.524V53.3145ZM100.578 1.5V0H98.5092L99.1522 1.96628L100.578 1.5ZM112.357 1.5L113.794 1.0705L113.475 0H112.357V1.5ZM122.691 36.0791L121.254 36.5086L122.689 41.3093L124.128 36.51L122.691 36.0791ZM133.061 1.5V0H131.945L131.625 1.06911L133.061 1.5ZM144.913 1.5L143.488 1.03193L126.469 52.8464L127.894 53.3145L129.319 53.7825L146.338 1.96807L144.913 1.5ZM127.894 53.3145V51.8145H117.524V53.3145V54.8145H127.894V53.3145ZM117.524 53.3145L118.95 52.8482L102.004 1.03372L100.578 1.5L99.1522 1.96628L116.099 53.7807L117.524 53.3145ZM100.578 1.5V3H112.357V1.5V0H100.578V1.5ZM112.357 1.5L110.92 1.9295L121.254 36.5086L122.691 36.0791L124.128 35.6496L113.794 1.0705L112.357 1.5ZM122.691 36.0791L124.128 36.51L134.498 1.93089L133.061 1.5L131.625 1.06911L121.254 35.6482L122.691 36.0791ZM133.061 1.5V3H144.913V1.5V0H133.061V1.5Z" fill="#2BB8BA" mask="url(#path-3-outside-2_114_28)"/>
</svg>
