<!DOCTYPE svg PUBLIC "-//W3C//DTD SVG 1.1//EN" "http://www.w3.org/Graphics/SVG/1.1/DTD/svg11.dtd">
<!-- Uploaded to: SVG Repo, www.svgrepo.com, Transformed by: SVG Repo Mixer Tools -->
<svg fill="#2BB8BA" height="800px" width="800px" version="1.1" id="Layer_1" xmlns="http://www.w3.org/2000/svg" xmlns:xlink="http://www.w3.org/1999/xlink" viewBox="0 0 512 512" xml:space="preserve">
<g id="SVGRepo_bgCarrier" stroke-width="0"/>
<g id="SVGRepo_tracerCarrier" stroke-linecap="round" stroke-linejoin="round"/>
<g id="SVGRepo_iconCarrier"> <g> <g> <path d="M495.377,83.21c9.18,0,16.623-7.443,16.623-16.623s-7.443-16.623-16.623-16.623h-19.814V30.908 c0-9.181-7.443-16.623-16.623-16.623c-9.18,0-16.623,7.443-16.623,16.623v19.055H69.684V30.908 c0-9.181-7.443-16.623-16.623-16.623s-16.623,7.443-16.623,16.623v19.055H16.623C7.443,49.963,0,57.406,0,66.587 S7.443,83.21,16.623,83.21h19.814v322.384H24.674c-9.181,0-16.623,7.443-16.623,16.623v58.875c0,9.18,7.443,16.623,16.623,16.623 h462.654c9.181,0,16.623-7.443,16.623-16.623v-58.875c0-9.18-7.443-16.623-16.623-16.623h-11.764V83.21H495.377z M69.684,83.21 h372.632v69.528h-22.111v-4.639c0-22.118-17.994-40.113-40.113-40.113c-22.119,0-40.113,17.994-40.113,40.113v4.639h-65.479 v-4.639c0-22.118-17.994-40.113-40.113-40.113c-22.119,0-40.113,17.994-40.113,40.113v4.639h-21.769v-4.639 c0-22.118-17.994-40.113-40.113-40.113c-22.119,0-40.113,17.994-40.113,40.113v4.639H69.684V83.21z M386.957,148.099v42.525 c0,3.787-3.08,6.867-6.867,6.867c-3.787,0-6.867-3.08-6.867-6.867v-42.525c0-3.787,3.08-6.867,6.867-6.867 C383.877,141.232,386.957,144.312,386.957,148.099z M241.251,148.099v42.525c0,3.787-3.08,6.867-6.867,6.867 c-3.787,0-6.867-3.08-6.867-6.867v-42.525c0-3.787,3.08-6.867,6.867-6.867C238.171,141.232,241.251,144.312,241.251,148.099z M139.255,148.099v42.525c0,3.787-3.08,6.867-6.867,6.867s-6.867-3.08-6.867-6.867v-42.525c0-3.787,3.08-6.867,6.867-6.867 S139.255,144.312,139.255,148.099z M69.684,185.985h22.591v4.639c0,22.119,17.994,40.113,40.113,40.113 c22.119,0,40.113-17.995,40.113-40.113v-4.639h21.769v4.639c0,22.118,17.994,40.113,40.113,40.113s40.113-17.995,40.113-40.113 v-4.639h65.479v4.639c0,22.118,17.994,40.113,40.113,40.113c22.119,0,40.113-17.995,40.113-40.113v-4.639h22.111v117.665h-20.923 v-4.639c0-22.118-17.994-40.113-40.113-40.113c-22.119,0-40.113,17.995-40.113,40.113v4.639h-21.769v-4.639 c0-22.118-17.994-40.113-40.113-40.113s-40.113,17.995-40.113,40.113v4.639h-21.019v-4.639c0-22.118-17.994-40.113-40.113-40.113 s-40.113,17.995-40.113,40.113v4.639h-68.24V185.985z M388.145,299.01v42.525c0,3.787-3.08,6.867-6.867,6.867 c-3.787,0-6.867-3.081-6.867-6.867V299.01c0-3.787,3.08-6.867,6.867-6.867C385.065,292.144,388.145,295.225,388.145,299.01z M286.149,299.01v42.525c0,3.787-3.08,6.867-6.867,6.867c-3.787,0-6.867-3.081-6.867-6.867V299.01c0-3.787,3.08-6.867,6.867-6.867 C283.069,292.144,286.149,295.225,286.149,299.01z M184.904,299.01v42.525c0,3.787-3.08,6.867-6.867,6.867 s-6.867-3.081-6.867-6.867V299.01c0-3.787,3.08-6.867,6.867-6.867S184.904,295.225,184.904,299.01z M69.684,336.896h68.239v4.639 c0,22.118,17.994,40.113,40.113,40.113c22.119,0,40.113-17.995,40.113-40.113v-4.639h21.019v4.639 c0,22.118,17.994,40.113,40.113,40.113c22.119,0,40.113-17.995,40.113-40.113v-4.639h21.769v4.639 c0,22.118,17.994,40.113,40.113,40.113c22.119,0,40.113-17.995,40.113-40.113v-4.639h20.924v68.698H69.684V336.896z M470.704,464.468h-0.001H41.297v-25.628c8.116,0,426.554,0,429.407,0V464.468z"/> </g> </g> </g>
</svg>